<svg width="34" height="33" viewBox="0 0 34 33" fill="none" xmlns="http://www.w3.org/2000/svg">
<circle cx="22" cy="12.5" r="12" fill="#FEE2E2"/>
<path d="M16 6.33341C18.5734 6.33341 22.6667 8.20008 22.6667 13.2001C22.6667 16.0801 20.3734 19.4267 16 22.9601C11.6267 19.4267 9.33335 16.0667 9.33335 13.2001C9.33335 8.20008 13.4267 6.33341 16 6.33341ZM16 3.66675C11.64 3.66675 6.66669 6.94675 6.66669 13.2001C6.66669 17.3601 9.77335 21.7467 16 26.3334C22.2267 21.7467 25.3334 17.3601 25.3334 13.2001C25.3334 6.94675 20.36 3.66675 16 3.66675Z" fill="url(#paint0_linear_671_4855)"/>
<path d="M16 10.3333C14.5334 10.3333 13.3334 11.5333 13.3334 12.9999C13.3334 14.4666 14.5334 15.6666 16 15.6666C16.7073 15.6666 17.3855 15.3856 17.8856 14.8855C18.3857 14.3854 18.6667 13.7072 18.6667 12.9999C18.6667 12.2927 18.3857 11.6144 17.8856 11.1143C17.3855 10.6142 16.7073 10.3333 16 10.3333ZM6.66669 27.6666H25.3334V30.3333H6.66669V27.6666Z" fill="url(#paint1_linear_671_4855)"/>
<defs>
<linearGradient id="paint0_linear_671_4855" x1="16" y1="3.66675" x2="16" y2="26.3334" gradientUnits="userSpaceOnUse">
<stop stop-color="#D70900"/>
<stop offset="1" stop-color="#BF0B1C"/>
</linearGradient>
<linearGradient id="paint1_linear_671_4855" x1="16" y1="10.3333" x2="16" y2="30.3333" gradientUnits="userSpaceOnUse">
<stop stop-color="#D70900"/>
<stop offset="1" stop-color="#BF0B1C"/>
</linearGradient>
</defs>
</svg>
