<svg width="34" height="33" viewBox="0 0 34 33" fill="none" xmlns="http://www.w3.org/2000/svg">
<circle cx="22" cy="12.5" r="12" fill="#FEE2E2"/>
<path d="M6.66667 14.3333H25.3333V17H28V8.99996C28 7.53329 26.8 6.33329 25.3333 6.33329H24V3.66663H21.3333V6.33329H10.6667V3.66663H8V6.33329H6.66667C5.18667 6.33329 4.01333 7.53329 4.01333 8.99996L4 27.6666C4 29.1333 5.18667 30.3333 6.66667 30.3333H16V27.6666H6.66667V14.3333ZM6.66667 8.99996H25.3333V11.6666H6.66667V8.99996ZM30.4533 22.7066L29.5067 23.6533L26.68 20.8266L27.6267 19.88C28.1467 19.36 28.9867 19.36 29.5067 19.88L30.4533 20.8266C30.9733 21.3466 30.9733 22.1866 30.4533 22.7066ZM25.7333 21.7733L28.56 24.6L21.4933 31.6666H18.6667V28.84L25.7333 21.7733Z" fill="url(#paint0_linear_671_5434)"/>
<defs>
<linearGradient id="paint0_linear_671_5434" x1="17.4217" y1="3.66663" x2="17.4217" y2="31.6666" gradientUnits="userSpaceOnUse">
<stop stop-color="#D70900"/>
<stop offset="1" stop-color="#BF0B1C"/>
</linearGradient>
</defs>
</svg>
