<svg width="35" height="33" viewBox="0 0 35 33" fill="none" xmlns="http://www.w3.org/2000/svg">
<circle cx="22.6666" cy="12.5" r="12" fill="#FEE2E2"/>
<path d="M26 19.6667V9.00004C26 7.53337 24.8 6.33337 23.3333 6.33337H4.66664C3.19997 6.33337 1.99997 7.53337 1.99997 9.00004V19.6667C1.99997 21.1334 3.19997 22.3334 4.66664 22.3334H23.3333C24.8 22.3334 26 21.1334 26 19.6667ZM23.3333 19.6667H4.66664V9.00004H23.3333V19.6667ZM14 10.3334C11.7866 10.3334 9.99997 12.12 9.99997 14.3334C9.99997 16.5467 11.7866 18.3334 14 18.3334C16.2133 18.3334 18 16.5467 18 14.3334C18 12.12 16.2133 10.3334 14 10.3334ZM31.3333 10.3334V25C31.3333 26.4667 30.1333 27.6667 28.6666 27.6667H5.99997C5.99997 26.3334 5.99997 26.4667 5.99997 25H28.6666V10.3334C30.1333 10.3334 30 10.3334 31.3333 10.3334Z" fill="url(#paint0_linear_671_5351)"/>
<defs>
<linearGradient id="paint0_linear_671_5351" x1="16.6666" y1="6.33337" x2="16.6666" y2="27.6667" gradientUnits="userSpaceOnUse">
<stop stop-color="#D70900"/>
<stop offset="1" stop-color="#BF0B1C"/>
</linearGradient>
</defs>
</svg>
