<svg width="35" height="33" viewBox="0 0 35 33" fill="none" xmlns="http://www.w3.org/2000/svg">
<circle cx="22.6666" cy="12.5" r="12" fill="#FEE2E2"/>
<path d="M26 3.66675H7.33329C5.85329 3.66675 4.66663 4.86675 4.66663 6.33341V25.0001C4.66663 26.4667 5.85329 27.6667 7.33329 27.6667H12.6666L16.6666 31.6667L20.6666 27.6667H26C27.4666 27.6667 28.6666 26.4667 28.6666 25.0001V6.33341C28.6666 4.86675 27.4666 3.66675 26 3.66675ZM26 25.0001H19.56L18.7733 25.7867L16.6666 27.8934L14.5466 25.7734L13.7733 25.0001H7.33329V6.33341H26V25.0001ZM15.3333 21.0001H18V23.6667H15.3333V21.0001ZM16.6666 10.3334C18.1333 10.3334 19.3333 11.5334 19.3333 13.0001C19.3333 15.6667 15.3333 15.3334 15.3333 19.6667H18C18 16.6667 22 16.3334 22 13.0001C22 10.0534 19.6133 7.66675 16.6666 7.66675C13.72 7.66675 11.3333 10.0534 11.3333 13.0001H14C14 11.5334 15.2 10.3334 16.6666 10.3334Z" fill="url(#paint0_linear_671_5103)"/>
<defs>
<linearGradient id="paint0_linear_671_5103" x1="16.6666" y1="3.66675" x2="16.6666" y2="31.6667" gradientUnits="userSpaceOnUse">
<stop stop-color="#D70900"/>
<stop offset="1" stop-color="#BF0B1C"/>
</linearGradient>
</defs>
</svg>
