<svg width="35" height="33" viewBox="0 0 35 33" fill="none" xmlns="http://www.w3.org/2000/svg">
<circle cx="22.3333" cy="12.5" r="12" fill="#FEE2E2"/>
<path d="M2.48956 22.0001V11.6401H4.76456V20.1101H9.52456V22.0001H2.48956Z" fill="url(#paint0_linear_671_5105)"/>
<path d="M11.5286 22.0001V11.6401H18.8016V13.4601H13.7756V20.1801H18.8716V22.0001H11.5286ZM12.8796 17.6111V15.7911H18.0876V17.6111H12.8796Z" fill="url(#paint1_linear_671_5105)"/>
<path d="M25.6369 22.1331C24.6522 22.1331 23.7936 21.9417 23.0609 21.5591C22.3329 21.1764 21.7659 20.5931 21.3599 19.8091C20.9586 19.0204 20.7579 18.0241 20.7579 16.8201C20.7579 15.6161 20.9586 14.6221 21.3599 13.8381C21.7659 13.0494 22.3329 12.4637 23.0609 12.0811C23.7936 11.6984 24.6522 11.5071 25.6369 11.5071C26.6216 11.5071 27.4779 11.7007 28.2059 12.0881C28.9386 12.4707 29.5056 13.0564 29.9069 13.8451C30.3129 14.6291 30.5159 15.6207 30.5159 16.8201C30.5159 18.0194 30.3129 19.0134 29.9069 19.8021C29.5056 20.5861 28.9386 21.1717 28.2059 21.5591C27.4732 21.9417 26.6169 22.1331 25.6369 22.1331ZM25.6369 20.2991C26.1689 20.2991 26.6239 20.1847 27.0019 19.9561C27.3846 19.7227 27.6762 19.3541 27.8769 18.8501C28.0822 18.3461 28.1849 17.6857 28.1849 16.8691C28.1849 16.0197 28.0822 15.3384 27.8769 14.8251C27.6716 14.3071 27.3776 13.9314 26.9949 13.6981C26.6169 13.4601 26.1642 13.3411 25.6369 13.3411C25.1096 13.3411 24.6546 13.4554 24.2719 13.6841C23.8939 13.9127 23.6022 14.2791 23.3969 14.7831C23.1916 15.2871 23.0889 15.9497 23.0889 16.7711C23.0889 17.6251 23.1892 18.3111 23.3899 18.8291C23.5952 19.3424 23.8869 19.7157 24.2649 19.9491C24.6476 20.1824 25.1049 20.2991 25.6369 20.2991Z" fill="url(#paint2_linear_671_5105)"/>
<defs>
<linearGradient id="paint0_linear_671_5105" x1="16.5027" y1="11.5071" x2="16.5027" y2="22.1331" gradientUnits="userSpaceOnUse">
<stop stop-color="#D70900"/>
<stop offset="1" stop-color="#BF0B1C"/>
</linearGradient>
<linearGradient id="paint1_linear_671_5105" x1="16.5027" y1="11.5071" x2="16.5027" y2="22.1331" gradientUnits="userSpaceOnUse">
<stop stop-color="#D70900"/>
<stop offset="1" stop-color="#BF0B1C"/>
</linearGradient>
<linearGradient id="paint2_linear_671_5105" x1="16.5027" y1="11.5071" x2="16.5027" y2="22.1331" gradientUnits="userSpaceOnUse">
<stop stop-color="#D70900"/>
<stop offset="1" stop-color="#BF0B1C"/>
</linearGradient>
</defs>
</svg>
