<svg width="24" height="25" viewBox="0 0 24 25" fill="none" xmlns="http://www.w3.org/2000/svg">
<g clip-path="url(#clip0_61_2518)">
<path d="M21.8248 1.7V20.075H2.1748V5.675L7.34981 0.5H20.6623C21.2998 0.5 21.8248 1.0625 21.8248 1.7Z" fill="#EFF2F3"/>
<path d="M6.26289 5.675H2.21289L7.35039 0.5L7.31289 4.55C7.35039 5.1875 6.86289 5.675 6.26289 5.675Z" fill="#DADEDE"/>
<path d="M13.9127 11C12.8252 9.94997 12.0377 8.74997 12.0377 8.74997C12.3377 8.29997 13.0502 5.71247 11.9627 4.96247C10.8752 4.21247 10.3127 5.59997 10.3127 5.59997C9.82519 7.32497 10.9877 8.89997 10.9877 8.89997L9.67519 11.7875C9.52519 11.7875 5.3627 13.4 6.7877 15.3875C8.2502 17.375 10.2752 12.575 10.2752 12.575C11.0627 12.3125 13.4627 11.975 13.4627 11.975C14.4002 13.25 15.5252 13.6625 15.5252 13.6625C17.2502 14.1125 17.4377 12.6875 17.4377 12.6875C17.4752 10.8125 13.9127 11 13.9127 11ZM7.5002 14.7125C7.4627 14.7125 7.4627 14.675 7.4627 14.675C7.2377 14.15 8.9627 13.1375 8.9627 13.1375C8.9627 13.1375 8.0252 14.9375 7.5002 14.7125ZM11.4002 5.63747C11.8877 6.08747 11.4752 7.62497 11.4752 7.62497C11.4752 7.62497 10.9127 6.08747 11.4002 5.63747ZM10.9502 11.45L11.6252 9.79997L12.6752 11.075L10.9502 11.45ZM16.5002 12.65C16.2002 13.1375 14.9627 12.0875 14.8502 11.975C15.0377 11.975 16.6502 12.0875 16.5002 12.65ZM21.8252 18.875V23.3C21.8252 23.9375 21.3002 24.5 20.6252 24.5H3.3377C2.7002 24.5 2.1377 23.975 2.1377 23.3V18.875H21.8252Z" fill="#F2786B"/>
<path d="M10.4627 20.825C10.4627 21.125 10.3502 21.35 10.1627 21.5375C9.9752 21.6875 9.67519 21.7625 9.30019 21.7625H9.0002V22.85H8.5127V19.9625H9.3752C9.7502 19.9625 10.0127 20.0375 10.2002 20.1875C10.3877 20.3375 10.4627 20.525 10.4627 20.825ZM9.0377 21.3875H9.30019C9.52519 21.3875 9.7127 21.35 9.8252 21.275C9.9377 21.2 10.0127 21.05 10.0127 20.8625C10.0127 20.7125 9.97519 20.5625 9.86269 20.4875C9.75019 20.4125 9.6002 20.375 9.3752 20.375H9.0377V21.3875ZM13.4252 21.3875C13.4252 21.875 13.2752 22.25 13.0127 22.475C12.7502 22.7375 12.3752 22.85 11.8502 22.85H11.0252V19.9625H11.9252C12.3752 19.9625 12.7502 20.075 13.0127 20.3375C13.2752 20.5625 13.4252 20.9375 13.4252 21.3875ZM12.9002 21.3875C12.9002 20.675 12.5627 20.3375 11.9252 20.3375H11.5127V22.4375H11.8502C12.5627 22.475 12.9002 22.1 12.9002 21.3875ZM14.5127 22.85H14.0252V19.9625H15.6752V20.375H14.5127V21.275H15.6002V21.6875H14.5127V22.85Z" fill="#EFF2F3"/>
</g>
<defs>
<clipPath id="clip0_61_2518">
<rect width="24" height="24" fill="white" transform="translate(0 0.5)"/>
</clipPath>
</defs>
</svg>
