<svg width="40" height="40" viewBox="0 0 40 40" fill="none" xmlns="http://www.w3.org/2000/svg">
<path d="M20.0001 1.77777C16.396 1.77777 12.873 2.84649 9.87634 4.84877C6.87971 6.85105 4.54412 9.69697 3.16492 13.0267C1.78573 16.3563 1.42487 20.0202 2.12798 23.555C2.83108 27.0897 4.56658 30.3366 7.11501 32.885C9.66343 35.4335 12.9103 37.169 16.4451 37.8721C19.9799 38.5752 23.6437 38.2143 26.9734 36.8351C30.3031 35.4559 33.149 33.1203 35.1513 30.1237C37.1536 27.1271 38.2223 23.604 38.2223 20C38.2152 15.1693 36.2931 10.5385 32.8773 7.12273C29.4615 3.70693 24.8307 1.78482 20.0001 1.77777ZM20.0001 35.5555C16.9235 35.5555 13.916 34.6432 11.3579 32.934C8.79976 31.2247 6.80597 28.7953 5.6286 25.9528C4.45124 23.1104 4.14319 19.9827 4.7434 16.9653C5.34362 13.9478 6.82514 11.176 9.00062 9.00055C11.1761 6.82507 13.9478 5.34355 16.9653 4.74333C19.9828 4.14312 23.1105 4.45117 25.9529 5.62853C28.7953 6.8059 31.2248 8.79969 32.934 11.3578C34.6433 13.9159 35.5556 16.9234 35.5556 20C35.5509 24.1241 33.9105 28.078 30.9943 30.9942C28.0781 33.9104 24.1242 35.5508 20.0001 35.5555Z" fill="#92400E"/>
<path d="M23.9199 6.27555C23.584 6.17609 23.2223 6.21378 22.9141 6.38038C22.6059 6.54698 22.3762 6.8289 22.2754 7.16444L18.8266 19.2533L12.0088 25.2178C11.744 25.4521 11.5824 25.7815 11.5591 26.1344C11.5358 26.4873 11.6527 26.8351 11.8843 27.1022C12.1187 27.367 12.4481 27.5286 12.801 27.5519C13.1538 27.5752 13.5016 27.4583 13.7688 27.2267L20.8799 21.0044C21.0729 20.8348 21.2119 20.6123 21.2799 20.3644L24.8354 7.91999C24.8842 7.75191 24.8991 7.57582 24.8794 7.40193C24.8597 7.22803 24.8057 7.05976 24.7206 6.90685C24.6355 6.75394 24.5209 6.61942 24.3834 6.51106C24.246 6.4027 24.0884 6.32266 23.9199 6.27555Z" fill="#92400E"/>
</svg>
