<svg width="14" height="14" viewBox="0 0 14 14" fill="none" xmlns="http://www.w3.org/2000/svg">
<path d="M12.8333 6.1993H7.83325V1.1993C7.83325 0.978286 7.74545 0.766325 7.58917 0.610045C7.43289 0.453764 7.22093 0.365967 6.99992 0.365967C6.7789 0.365967 6.56694 0.453764 6.41066 0.610045C6.25438 0.766325 6.16658 0.978286 6.16658 1.1993V6.1993H1.16659C0.945571 6.1993 0.73361 6.2871 0.57733 6.44338C0.421049 6.59966 0.333252 6.81162 0.333252 7.03263C0.333252 7.25365 0.421049 7.46561 0.57733 7.62189C0.73361 7.77817 0.945571 7.86597 1.16659 7.86597H6.16658V12.866C6.16658 13.087 6.25438 13.2989 6.41066 13.4552C6.56694 13.6115 6.7789 13.6993 6.99992 13.6993C7.22093 13.6993 7.43289 13.6115 7.58917 13.4552C7.74545 13.2989 7.83325 13.087 7.83325 12.866V7.86597H12.8333C13.0543 7.86597 13.2662 7.77817 13.4225 7.62189C13.5788 7.46561 13.6666 7.25365 13.6666 7.03263C13.6666 6.81162 13.5788 6.59966 13.4225 6.44338C13.2662 6.2871 13.0543 6.1993 12.8333 6.1993Z" fill="url(#paint0_linear_112_1011)"/>
<defs>
<linearGradient id="paint0_linear_112_1011" x1="6.99992" y1="0.365967" x2="6.99992" y2="13.6993" gradientUnits="userSpaceOnUse">
<stop stop-color="#D70900"/>
<stop offset="1" stop-color="#BF0B1C"/>
</linearGradient>
</defs>
</svg>
