<svg width="105" height="49" viewBox="0 0 105 49" fill="none" xmlns="http://www.w3.org/2000/svg">
<g clip-path="url(#clip0_35_2840)">
<path fill-rule="evenodd" clip-rule="evenodd" d="M96.6153 46.3664L96.6524 46.3293V47.6275C96.1701 48.0727 95.9105 48.221 95.4654 48.221C94.9461 48.221 94.5751 48.0356 94.5751 47.4421C94.5751 46.5518 95.5396 46.3293 96.0589 46.3293C96.1331 46.3293 96.4298 46.3664 96.6153 46.3664ZM42.2368 46.3664C42.2739 46.4035 42.311 46.4035 42.3481 46.3293V47.5905C41.9401 48.0727 41.495 48.2211 41.1241 48.2211C40.6418 48.2211 40.2709 48.0727 40.2709 47.4792C40.2709 46.589 41.1611 46.3293 41.7175 46.3293C41.7918 46.3293 42.0514 46.3293 42.2368 46.3664H42.2368ZM37.4889 46.7002C37.4889 47.9243 36.5616 48.0727 35.7456 48.0727C35.6713 48.0727 35.3005 48.0727 35.115 48.0356V45.4019C35.3375 45.4391 35.7084 45.4019 35.8197 45.4019C36.7471 45.4019 37.4889 45.5874 37.4889 46.7002L37.4889 46.7002ZM28.8462 44.9568V47.7759C28.5866 48.0727 28.1414 48.1839 27.9189 48.1839C26.6577 48.1839 26.3238 47.2937 26.3238 46.3664C26.3238 45.5132 26.769 44.4746 27.8818 44.4746C28.1785 44.4746 28.5866 44.5488 28.8462 44.9568ZM22.8371 44.5117C23.1339 44.5488 23.7274 45.1794 23.7274 45.5132V45.6987H20.9825V45.5874C21.205 44.8085 21.7243 44.4746 22.392 44.4746C22.4662 44.4746 22.6887 44.4746 22.8371 44.5117V44.5117ZM64.9006 46.2922C64.9006 47.0341 64.6781 48.1839 63.5282 48.1839C62.3412 48.1839 62.2299 46.997 62.2299 46.3293C62.2299 45.6616 62.4154 44.4375 63.5653 44.4375C64.7152 44.4375 64.9006 45.5874 64.9006 46.2922ZM87.6016 43.7699V48.8887H86.7114V44.5117H86.0066V43.7699H87.6016H87.6016ZM14.9735 43.7699V48.8887H14.0462V44.5117H13.3415V43.7699H14.9735H14.9735ZM76.2884 46.6631H74.3224L75.3611 43.7328L76.2884 46.6631ZM96.8009 43.9183C97.2831 44.1037 97.6169 45.031 97.6169 45.439V47.8501C97.654 48.0727 97.7282 48.3323 98.0249 48.5177V48.9629H97.5798C97.2831 48.8887 96.838 48.629 96.7638 48.3323C96.5041 48.7774 95.5397 49 95.1317 49C94.2044 49 93.648 48.221 93.648 47.4421C93.648 46.0696 95.1317 45.5874 96.0219 45.5874C96.0961 45.5874 96.43 45.6616 96.6525 45.6987C96.6896 45.6616 96.6896 45.5874 96.6896 45.5132C96.6896 44.6972 96.059 44.4746 95.5397 44.4746C95.1688 44.4746 94.6124 44.5859 94.3156 44.9198C94.1673 44.6972 93.9076 44.2891 93.9076 44.1779C93.9076 44.1037 94.2414 43.9183 94.3898 43.8812C94.5382 43.807 94.7608 43.7328 95.0204 43.6957C95.1317 43.6586 95.4284 43.6586 95.5026 43.6586C95.9106 43.6586 96.43 43.7699 96.8009 43.9183L96.8009 43.9183ZM92.9061 44.1779C92.7948 44.3634 92.6465 44.5859 92.498 44.8085C91.9788 44.5117 91.7191 44.4375 91.274 44.4375C89.9757 44.4375 89.679 45.5503 89.679 46.3664C89.679 47.4421 90.1983 48.221 91.3111 48.221C91.682 48.221 92.2384 47.9985 92.5722 47.7388L92.9432 48.4807C92.6465 48.7403 91.6078 49 91.1256 49C90.1612 49 89.0855 48.4065 88.7517 47.0341C88.7517 46.9599 88.7146 46.8115 88.7146 46.7373V46.0326C88.8629 44.2891 90.1241 43.6586 91.3111 43.6586C91.7933 43.6586 92.461 43.8811 92.9061 44.1779V44.1779ZM85.5987 43.7328L85.2649 44.623C85.0794 44.5488 84.7085 44.4375 84.6343 44.4375C84.0408 44.4375 83.4473 45.1052 83.4473 45.6245V48.8887H82.52V43.7699H83.4473C83.4473 43.9924 83.4473 44.2521 83.4844 44.4746C83.7812 43.844 84.4489 43.6586 84.894 43.6586C85.0052 43.6586 85.3762 43.6957 85.5987 43.7328H85.5987ZM69.9825 43.807C69.8712 44.1037 69.76 44.3634 69.6487 44.623C69.4632 44.5488 69.0923 44.4376 69.0181 44.4376C68.4246 44.4376 67.8311 45.1052 67.8311 45.6245V48.8887H66.9038V43.7699H67.8311C67.8311 43.9924 67.8311 44.2521 67.8682 44.4746C68.165 43.844 68.8327 43.6586 69.2778 43.6586C69.5003 43.6586 69.9825 43.807 69.9825 43.807H69.9825ZM65.8652 46.2922C65.8652 47.5905 65.3088 49 63.5654 49C61.8591 49 61.2286 47.5905 61.2286 46.2922C61.2286 44.9198 62.0075 43.6586 63.5654 43.6586C65.3459 43.6586 65.8652 45.031 65.8652 46.2922ZM47.5413 43.6957C48.1718 43.6957 48.7654 44.623 48.7654 45.1794V48.8887H47.8751V45.5132C47.838 44.7343 47.3929 44.4376 46.8365 44.4376C46.7252 44.4376 46.6511 44.4004 46.6139 44.4376C46.3914 44.4746 45.6124 44.8085 45.6124 45.1052V48.8887H44.7222V43.7699H45.3528C45.427 43.9553 45.5383 44.1779 45.6124 44.3634C45.9834 43.844 46.5768 43.6586 47.0962 43.6586C47.1703 43.6586 47.3929 43.6957 47.5413 43.6957H47.5413ZM43.0901 44.6601C43.1272 44.8455 43.2756 45.1423 43.2756 45.2536V47.6646C43.3497 47.8872 43.3127 48.2952 43.6836 48.5178V48.9629H43.2756C43.0159 48.9258 42.5337 48.7033 42.4595 48.3323C42.2369 48.7774 41.1613 49 40.7903 49C39.9001 49 39.3066 48.221 39.3066 47.4421C39.3066 46.0696 40.7903 45.5874 41.6805 45.5874C41.7548 45.5874 42.1257 45.6616 42.3482 45.6987C42.3853 45.6616 42.3853 45.6616 42.3853 45.5503C42.3853 44.8085 41.866 44.4746 41.2354 44.4746C40.7903 44.4746 40.4194 44.5488 40.0113 44.9198C39.8259 44.8085 39.6405 44.3634 39.5662 44.1779C39.9372 43.8812 40.6791 43.6586 41.1984 43.6586C41.7176 43.6586 42.8304 43.807 43.0901 44.6601L43.0901 44.6601ZM24.6548 45.8471C24.6548 45.9213 24.6548 46.218 24.6177 46.4035H20.9084V46.7002C20.9826 47.7388 21.7616 48.2211 22.5405 48.2211C22.9486 48.2211 23.3194 48.1097 23.8017 47.7759C23.9501 47.9614 24.0613 48.1839 24.2097 48.4065C23.9501 48.7403 22.8002 49 22.3551 49C20.723 49 19.944 47.6646 19.944 46.3664C19.944 44.9939 20.7971 43.6586 22.3551 43.6586C23.7275 43.6586 24.6548 44.4376 24.6548 45.8471V45.8471ZM11.4497 43.807C11.561 43.844 11.8577 44.1408 11.969 44.2891C12.0061 44.2891 12.3028 45.031 12.3028 45.1794V48.8887H11.4126V45.5132C11.2643 44.6601 10.9675 44.4376 10.374 44.4376C9.96598 44.4376 9.55796 44.5859 9.14995 45.1052V48.8887H8.25972V43.7699H8.89029C8.96445 43.9553 9.07572 44.1779 9.14995 44.3634C9.52085 43.8441 10.1144 43.6586 10.6336 43.6586C10.7079 43.6586 11.19 43.6957 11.4497 43.807L11.4497 43.807ZM37.1181 43.5844C37.1181 44.5488 36.3021 44.6601 35.6715 44.6601H35.1151V42.6571H35.7086C36.265 42.6571 37.1181 42.6571 37.1181 43.5844ZM17.6442 43.7699H19.0538V44.4746H17.6442V47.3679C17.8297 48.0356 18.0894 48.2211 18.5345 48.2211C18.6458 48.2211 19.0538 48.1097 19.2764 48.0356C19.3134 48.2952 19.3877 48.592 19.4247 48.8516C19.0167 48.9258 18.2749 49 18.1636 49C17.3846 49 16.7169 48.2582 16.7169 47.5534V44.4746H16.1234V43.7699H16.7169V42.6942C17.0137 42.5829 17.3475 42.4345 17.6442 42.3604V43.7699L17.6442 43.7699ZM2.91829 41.8781V46.626C3.06665 47.7388 3.66014 48.1469 4.402 48.1469C5.03262 48.1469 5.62607 47.8501 5.92284 46.997V41.8781H6.88725V47.1083C6.66468 48.6661 5.36644 49 4.402 49C3.62305 49 2.58447 48.7775 2.13934 47.7759C2.06512 47.5534 1.99096 47.1824 1.99096 47.1082V41.8781H2.91829H2.91829ZM87.75 42.3603C87.75 42.7312 87.5275 42.9538 87.1936 42.9538C86.8227 42.9538 86.6373 42.62 86.6373 42.3974C86.6373 42.0265 86.8227 41.841 87.1936 41.841C87.5275 41.841 87.75 42.0265 87.75 42.3603ZM15.122 42.3603C15.122 42.7312 14.7881 42.9538 14.5285 42.9538C14.1576 42.9538 13.9721 42.62 13.9721 42.3974C13.9721 42.0265 14.2688 41.841 14.5285 41.841C14.8623 41.841 15.122 42.0265 15.122 42.3603ZM38.1197 43.5102C38.1197 44.0295 37.8601 44.5488 37.1182 44.9198L37.0811 44.9939C38.1568 45.2165 38.5648 46.0326 38.5648 46.8486C38.5648 46.9228 38.4906 47.2566 38.4535 47.4421C38.3423 48.2582 37.044 48.8887 36.4134 48.8887H34.1136V41.8039H35.857C36.8586 41.8039 38.1197 42.1007 38.1197 43.5102L38.1197 43.5102ZM75.5095 41.7668L78.1802 48.8887H77.1045C76.9561 48.4065 76.7706 47.8872 76.5852 47.405H74.0629C73.8403 47.8872 73.6548 48.4065 73.5065 48.8887H72.4307C73.3581 46.5147 74.3225 44.1408 75.2498 41.7668H75.5095H75.5095ZM81.8524 41.8039C81.8153 41.8781 81.5928 42.4716 81.5556 42.4716C81.4444 42.4716 81.1847 42.3974 81.0735 42.3974C80.4058 42.3974 80.109 42.9909 80.109 43.5102C80.109 43.5844 80.1461 43.6586 80.1461 43.7698H81.1847V44.5117H80.1461V48.8887H79.2559V44.5117H78.514V43.7698H79.2559C79.2188 42.5458 79.8494 41.6556 80.9992 41.6556C81.0735 41.6556 81.5556 41.7297 81.8524 41.8039ZM60.969 41.8039L60.7464 42.4716C60.5981 42.4345 60.3384 42.3974 60.2271 42.3974C59.8191 42.3974 59.2627 42.8055 59.2627 43.2506V43.7699H60.3384V44.5117H59.2627V48.8887H58.3725V44.5117H57.6306V43.7699H58.3725C58.3725 42.5087 59.003 41.6556 60.1158 41.6556C60.2271 41.6556 60.7094 41.7297 60.969 41.8039L60.969 41.8039ZM50.991 41.6556V46.0696L52.9198 43.7698H53.9955L52.4004 45.6987L54.3664 48.8887H53.3649L51.7699 46.3293C51.5474 46.589 51.2506 46.8857 50.991 47.1454V48.8887H50.0636V41.6555H50.991V41.6556ZM29.7737 41.6556V48.8887H28.8834C28.8834 48.7775 28.8834 48.6662 28.8464 48.5549C28.4013 48.8887 27.9562 48.9629 27.511 48.9629C25.8789 48.9629 25.3225 47.5905 25.3225 46.4406C25.3225 45.2907 26.1015 43.6586 27.6965 43.6586C27.9562 43.6586 28.5867 43.7699 28.8834 43.9924V41.6556H29.7737V41.6556ZM34.4104 24.1476C36.5988 24.6298 37.5632 25.8539 37.5632 27.5602C37.5632 27.6343 37.5262 28.3391 37.4149 28.71C37.3036 29.081 37.0996 29.4086 36.7472 29.8599C35.6514 31.2633 33.5572 32.3822 32.259 32.3822H28.5496C29.1431 29.6745 29.6624 26.8925 30.2559 24.2219C30.2559 24.1476 30.293 24.1106 30.3672 24.0735L33.1863 23.9993C33.2605 23.9993 34.0023 24.0735 34.4104 24.1476L34.4104 24.1476ZM59.003 27.2634H52.2892L57.1855 19.7706L59.003 27.2634ZM38.1938 17.508C38.1938 17.5822 38.0455 18.287 38.0084 18.6579C37.9342 19.4368 37.2294 20.5867 36.1908 21.2173C35.8199 21.4399 34.2991 22.3301 34.0765 22.3301H30.7752C30.8865 21.7366 30.9978 21.106 31.109 20.5125C31.1833 20.1416 31.2945 19.7336 31.3316 19.3626C31.4058 18.9917 31.5171 18.5837 31.5542 18.2128C31.6284 17.8418 31.7397 17.4338 31.7767 17.0629C31.8509 16.6919 31.8818 16.4879 31.9622 15.913C32.0426 15.2515 31.9931 15.2268 32.3702 15.2453L35.1522 15.1711C36.3392 15.1711 38.1938 15.8017 38.1938 17.508V17.508ZM60.2271 12.2408L65.7911 35.1272H60.7835L59.8933 30.6389H50.212L47.2445 35.1272H43.0901L58.595 12.2408H60.2271H60.2271ZM38.0826 12.2408C41.4209 12.6117 42.9788 14.1696 42.9788 16.7661C42.9788 19.5481 41.05 21.6253 37.6745 22.7381C37.7116 22.7752 37.7858 22.7752 37.8229 22.7752C40.3081 23.1461 42.0886 24.5927 42.0886 26.8554C42.0886 30.4535 39.863 33.7918 35.0409 34.8675C34.8183 34.9046 33.3346 35.2014 32.8153 35.2014H23.3566L28.1416 12.2407H38.0825L38.0826 12.2408ZM7.92583 12.2408C7.55489 14.2067 7.14688 16.0614 6.77592 17.916C6.47921 19.2885 6.18244 20.7351 5.92281 22.1446C5.55188 24.2219 4.95837 26.2249 4.95837 28.302C4.95837 30.5647 5.70026 32.6048 8.63059 32.6048C11.4497 32.6048 14.2317 30.7502 15.1219 26.9667C16.2718 22.0705 17.2362 17.137 18.2748 12.2407H22.5034V12.352C21.3164 17.7305 20.2036 23.109 18.9795 28.4504C18.3305 30.1382 18.043 30.4071 17.5329 31.084C15.3073 34.1627 12.3399 35.1643 9.7805 35.461C9.48379 35.4981 8.96444 35.5723 8.85317 35.5723H6.59052C6.14539 35.5352 5.66318 35.461 5.25517 35.3868C4.84712 35.3127 4.402 35.2014 3.99398 35.0901C1.13782 34.3853 0.0250244 31.6404 0.0250244 29.6003V28.7101C0.0621064 28.4504 0.0621064 28.1537 0.0992163 27.8569C1.1749 22.664 2.25062 17.4338 3.32631 12.2408H7.92586L7.92583 12.2408ZM84.8196 34.9788C84.2261 35.053 83.0762 35.2014 82.9649 35.2014H73.7288L79.9604 5.93493C83.2246 12.3149 86.4888 18.7692 89.7159 25.2233C90.2723 26.6328 90.7916 28.1536 90.7916 29.6002C90.7916 32.8273 88.5289 34.3852 84.8196 34.9787L84.8196 34.9788ZM98.0989 29.2664C96.2072 25.5942 94.3154 21.885 92.4608 18.2128C91.4222 16.1726 90.3836 14.0583 89.3449 12.0553C89.0111 11.3505 88.6402 10.72 88.3434 10.0523C88.0096 9.31044 87.2677 7.04776 87.2677 5.97207V5.19309C87.3049 4.82216 87.3419 4.37703 87.4532 4.04321C88.566 0.519381 92.6833 0.185528 95.1315 3.57858e-05L104.368 0L98.0989 29.2664Z" fill="white"/>
</g>
<defs>
<clipPath id="clip0_35_2840">
<rect width="104.737" height="49" fill="white" transform="translate(0.0250244)"/>
</clipPath>
</defs>
</svg>
