<svg width="17" height="16" viewBox="0 0 17 16" fill="none" xmlns="http://www.w3.org/2000/svg">
<path d="M12.7799 5.48C12.3726 4.544 11.6696 3.76738 10.7786 3.26915C9.8877 2.77091 8.85797 2.57855 7.84724 2.72154C6.83651 2.86452 5.90054 3.33496 5.18276 4.06078C4.46498 4.78659 4.00499 5.72774 3.87326 6.74C3.23765 6.89221 2.68007 7.27255 2.30642 7.80879C1.93276 8.34503 1.76905 8.99981 1.84637 9.64881C1.92369 10.2978 2.23666 10.8958 2.72584 11.3292C3.21502 11.7627 3.84635 12.0014 4.49993 12C4.67674 12 4.84631 11.9298 4.97133 11.8047C5.09636 11.6797 5.16659 11.5101 5.16659 11.3333C5.16659 11.1565 5.09636 10.9869 4.97133 10.8619C4.84631 10.7369 4.67674 10.6667 4.49993 10.6667C4.1463 10.6667 3.80717 10.5262 3.55712 10.2761C3.30707 10.0261 3.16659 9.68695 3.16659 9.33333C3.16659 8.97971 3.30707 8.64057 3.55712 8.39052C3.80717 8.14047 4.1463 8 4.49993 8C4.67674 8 4.84631 7.92976 4.97133 7.80473C5.09636 7.67971 5.16659 7.51014 5.16659 7.33333C5.1683 6.54485 5.44945 5.7825 5.96011 5.18172C6.47076 4.58094 7.17785 4.18063 7.95576 4.05191C8.73367 3.92319 9.53201 4.0744 10.209 4.47867C10.8859 4.88294 11.3977 5.51409 11.6533 6.26C11.6914 6.37456 11.7599 6.47662 11.8515 6.55528C11.943 6.63395 12.0543 6.68627 12.1733 6.70666C12.6173 6.79058 13.0198 7.0224 13.3153 7.36435C13.6107 7.70631 13.7816 8.13824 13.8002 8.58976C13.8187 9.04128 13.6838 9.48577 13.4175 9.85082C13.1511 10.2159 12.7689 10.4799 12.3333 10.6C12.1618 10.6442 12.0148 10.7547 11.9248 10.9073C11.8348 11.0598 11.8091 11.2418 11.8533 11.4133C11.8975 11.5848 12.008 11.7318 12.1605 11.8218C12.313 11.9118 12.4951 11.9375 12.6666 11.8933C13.3682 11.7079 13.9901 11.2987 14.4379 10.7276C14.8857 10.1566 15.135 9.45507 15.1478 8.72951C15.1606 8.00395 14.9363 7.29402 14.509 6.70754C14.0816 6.12106 13.4745 5.69006 12.7799 5.48ZM8.97326 6.86C8.90986 6.7993 8.83509 6.75173 8.75326 6.72C8.59095 6.65332 8.4089 6.65332 8.24659 6.72C8.16476 6.75173 8.09 6.7993 8.02659 6.86L6.02659 8.86C5.90106 8.98553 5.83053 9.15579 5.83053 9.33333C5.83053 9.51086 5.90106 9.68113 6.02659 9.80666C6.15213 9.9322 6.32239 10.0027 6.49993 10.0027C6.67746 10.0027 6.84772 9.9322 6.97326 9.80666L7.83326 8.94V12.6667C7.83326 12.8435 7.9035 13.013 8.02852 13.1381C8.15355 13.2631 8.32312 13.3333 8.49993 13.3333C8.67674 13.3333 8.84631 13.2631 8.97133 13.1381C9.09636 13.013 9.16659 12.8435 9.16659 12.6667V8.94L10.0266 9.80666C10.0886 9.86915 10.1623 9.91874 10.2435 9.95259C10.3248 9.98644 10.4119 10.0039 10.4999 10.0039C10.5879 10.0039 10.6751 9.98644 10.7563 9.95259C10.8376 9.91874 10.9113 9.86915 10.9733 9.80666C11.0357 9.74469 11.0853 9.67095 11.1192 9.58971C11.153 9.50847 11.1705 9.42134 11.1705 9.33333C11.1705 9.24532 11.153 9.15818 11.1192 9.07694C11.0853 8.99571 11.0357 8.92197 10.9733 8.86L8.97326 6.86Z" fill="url(#paint0_linear_92_877)"/>
<defs>
<linearGradient id="paint0_linear_92_877" x1="8.48799" y1="2.67552" x2="8.48799" y2="13.3333" gradientUnits="userSpaceOnUse">
<stop stop-color="#D70900"/>
<stop offset="1" stop-color="#BF0B1C"/>
</linearGradient>
</defs>
</svg>
