<svg width="34" height="33" viewBox="0 0 34 33" fill="none" xmlns="http://www.w3.org/2000/svg">
<circle cx="22" cy="12.5" r="12" fill="#FEE2E2"/>
<path d="M15.9866 3.66675C8.62663 3.66675 2.66663 9.64008 2.66663 17.0001C2.66663 24.3601 8.62663 30.3334 15.9866 30.3334C23.36 30.3334 29.3333 24.3601 29.3333 17.0001C29.3333 9.64008 23.36 3.66675 15.9866 3.66675ZM25.2266 11.6667H21.2933C20.8666 10.0001 20.2533 8.40008 19.4533 6.92008C21.9066 7.76008 23.9466 9.46675 25.2266 11.6667ZM16 6.38675C17.1066 7.98675 17.9733 9.76008 18.5466 11.6667H13.4533C14.0266 9.76008 14.8933 7.98675 16 6.38675ZM5.67996 19.6667C5.46663 18.8134 5.33329 17.9201 5.33329 17.0001C5.33329 16.0801 5.46663 15.1867 5.67996 14.3334H10.1866C10.08 15.2134 9.99996 16.0934 9.99996 17.0001C9.99996 17.9067 10.08 18.7867 10.1866 19.6667H5.67996ZM6.77329 22.3334H10.7066C11.1333 24.0001 11.7466 25.6001 12.5466 27.0801C10.0933 26.2401 8.05329 24.5467 6.77329 22.3334ZM10.7066 11.6667H6.77329C8.05329 9.45341 10.0933 7.76008 12.5466 6.92008C11.7466 8.40008 11.1333 10.0001 10.7066 11.6667ZM16 27.6134C14.8933 26.0134 14.0266 24.2401 13.4533 22.3334H18.5466C17.9733 24.2401 17.1066 26.0134 16 27.6134ZM19.12 19.6667H12.88C12.76 18.7867 12.6666 17.9067 12.6666 17.0001C12.6666 16.0934 12.76 15.2001 12.88 14.3334H19.12C19.24 15.2001 19.3333 16.0934 19.3333 17.0001C19.3333 17.9067 19.24 18.7867 19.12 19.6667ZM19.4533 27.0801C20.2533 25.6001 20.8666 24.0001 21.2933 22.3334H25.2266C23.9466 24.5334 21.9066 26.2401 19.4533 27.0801ZM21.8133 19.6667C21.92 18.7867 22 17.9067 22 17.0001C22 16.0934 21.92 15.2134 21.8133 14.3334H26.32C26.5333 15.1867 26.6666 16.0801 26.6666 17.0001C26.6666 17.9201 26.5333 18.8134 26.32 19.6667H21.8133Z" fill="url(#paint0_linear_671_5101)"/>
<defs>
<linearGradient id="paint0_linear_671_5101" x1="16" y1="3.66675" x2="16" y2="30.3334" gradientUnits="userSpaceOnUse">
<stop stop-color="#D70900"/>
<stop offset="1" stop-color="#BF0B1C"/>
</linearGradient>
</defs>
</svg>
